<?xml version="1.0" encoding="UTF-8" standalone="no"?>
<svg
   xmlns:dc="http://purl.org/dc/elements/1.1/"
   xmlns:cc="http://creativecommons.org/ns#"
   xmlns:rdf="http://www.w3.org/1999/02/22-rdf-syntax-ns#"
   xmlns:svg="http://www.w3.org/2000/svg"
   xmlns="http://www.w3.org/2000/svg"
   xmlns:sodipodi="http://sodipodi.sourceforge.net/DTD/sodipodi-0.dtd"
   xmlns:inkscape="http://www.inkscape.org/namespaces/inkscape"
   version="1.1"
   x="0px"
   y="0px"
   viewBox="0 0 100 99.999999"
   enable-background="new 0 0 100 100"
   xml:space="preserve"
   id="svg2"
   inkscape:version="0.91 r13725"
   sodipodi:docname="delivery.svg"
   width="100"
   height="100"><metadata
     id="metadata24"><rdf:RDF><cc:Work
         rdf:about=""><dc:format>image/svg+xml</dc:format><dc:type
           rdf:resource="http://purl.org/dc/dcmitype/StillImage" /><dc:title></dc:title></cc:Work></rdf:RDF></metadata><defs
     id="defs22" /><sodipodi:namedview
     pagecolor="#ffffff"
     bordercolor="#666666"
     borderopacity="1"
     objecttolerance="10"
     gridtolerance="10"
     guidetolerance="10"
     inkscape:pageopacity="0"
     inkscape:pageshadow="2"
     inkscape:window-width="640"
     inkscape:window-height="480"
     id="namedview20"
     showgrid="false"
     fit-margin-top="0"
     fit-margin-left="0"
     fit-margin-right="0"
     fit-margin-bottom="0"
     inkscape:zoom="1.888"
     inkscape:cx="-15.713136"
     inkscape:cy="12.6"
     inkscape:window-x="2450"
     inkscape:window-y="210"
     inkscape:window-maximized="0"
     inkscape:current-layer="svg2" /><g
     id="g4"
     transform="translate(0,-0.05)"
     style="fill:#ffffff"><path
       d="m 31.1,62.9 c -1.7,1.6 -3,3.7 -3.4,6.1 l -7.8,0 c -0.8,0 -1.4,-0.7 -1.3,-1.5 l 0.5,-3 C 19.2,63.7 20,63 20.9,63 l 10.2,0 z"
       id="path6"
       inkscape:connector-curvature="0"
       style="fill:#ffffff" /><path
       d="m 96.8,62.9 2.9,-16.3 c 0,-0.2 0,-0.5 0,-0.7 l -4.5,-14 C 95,31.4 94.6,31.1 94,31.1 l -14.3,0 c -0.8,0 -1.6,0.7 -1.8,1.5 l -5.3,30.3 -27.9,0 c 1.2,1.6 1.7,3.7 1.2,6.1 l 28.6,0 c 0.4,-2.3 1.7,-4.5 3.4,-6.1 2,-1.9 4.6,-3 7.3,-3 2.7,0 4.9,1.2 6.2,3 1.2,1.6 1.7,3.7 1.3,6.1 l 3,0 c 0.8,0 1.6,-0.7 1.8,-1.5 l 0.5,-3 c 0.2,-0.9 -0.4,-1.6 -1.2,-1.6 z m -18.3,-16.7 2.1,-12.1 12.1,0 3.9,12.1 -18.1,0 z"
       id="path8"
       inkscape:connector-curvature="0"
       style="fill:#ffffff" /><path
       d="m 37.9,62.9 c -3.3,0 -6.5,2.7 -7.1,6.1 -0.6,3.3 1.7,6.1 5,6.1 3.3,0 6.5,-2.7 7.1,-6.1 0.6,-3.4 -1.7,-6.1 -5,-6.1 z m 1.9,6 c -0.3,1.7 -1.9,3 -3.6,3 -1.7,0 -2.8,-1.4 -2.5,-3 0.3,-1.7 1.9,-3 3.6,-3 1.7,0 2.8,1.4 2.5,3 z"
       id="path10"
       inkscape:connector-curvature="0"
       style="fill:#ffffff" /><path
       d="m 84.7,62.9 c -3.3,0 -6.5,2.7 -7.1,6.1 -0.6,3.3 1.7,6.1 5,6.1 3.3,0 6.5,-2.7 7.1,-6.1 0.5,-3.4 -1.7,-6.1 -5,-6.1 z m 1.9,6 c -0.3,1.7 -1.9,3 -3.6,3 -1.7,0 -2.8,-1.4 -2.5,-3 0.3,-1.7 1.9,-3 3.6,-3 1.7,0 2.8,1.4 2.5,3 z"
       id="path12"
       inkscape:connector-curvature="0"
       style="fill:#ffffff" /><path
       d="m 76.2,25 -6.2,34.8 -50.1,0 0.5,-3 -8,0 c -0.8,0 -1.5,-0.7 -1.5,-1.5 0,-0.8 0.7,-1.5 1.5,-1.5 l 22.7,0 c 0.8,0 1.5,-0.7 1.5,-1.5 0,-0.8 -0.7,-1.5 -1.5,-1.5 l -13.5,0 0.8,-4.5 -14.5,0 c -0.8,0 -1.5,-0.7 -1.5,-1.5 0,-0.8 0.7,-1.5 1.5,-1.5 l 33.3,0 c 0.8,0 1.5,-0.7 1.5,-1.5 0,-0.8 -0.7,-1.5 -1.5,-1.5 l -17.8,0 0.8,-4.5 -22.4,0 C 1,35.8 0.3,35.1 0.3,34.3 0.3,33.5 1,32.8 1.8,32.8 l 33.3,0 c 0.8,0 1.5,-0.7 1.5,-1.5 0,-0.8 -0.7,-1.5 -1.5,-1.5 l -9.9,0 0.8,-4.5 50.2,0 z"
       id="path14"
       inkscape:connector-curvature="0"
       style="fill:#ffffff" /></g></svg>