<?xml version="1.0" encoding="UTF-8" standalone="no"?>
<svg
   xmlns:dc="http://purl.org/dc/elements/1.1/"
   xmlns:cc="http://creativecommons.org/ns#"
   xmlns:rdf="http://www.w3.org/1999/02/22-rdf-syntax-ns#"
   xmlns:svg="http://www.w3.org/2000/svg"
   xmlns="http://www.w3.org/2000/svg"
   xmlns:sodipodi="http://sodipodi.sourceforge.net/DTD/sodipodi-0.dtd"
   xmlns:inkscape="http://www.inkscape.org/namespaces/inkscape"
   version="1.1"
   x="0px"
   y="0px"
   viewBox="0 0 72 72"
   enable-background="new 0 0 90 90"
   xml:space="preserve"
   id="svg2"
   inkscape:version="0.91 r13725"
   sodipodi:docname="discounts.svg"
   width="72"
   height="72"><metadata
     id="metadata34"><rdf:RDF><cc:Work
         rdf:about=""><dc:format>image/svg+xml</dc:format><dc:type
           rdf:resource="http://purl.org/dc/dcmitype/StillImage" /><dc:title></dc:title></cc:Work></rdf:RDF></metadata><defs
     id="defs32" /><sodipodi:namedview
     pagecolor="#ffffff"
     bordercolor="#666666"
     borderopacity="1"
     objecttolerance="10"
     gridtolerance="10"
     guidetolerance="10"
     inkscape:pageopacity="0"
     inkscape:pageshadow="2"
     inkscape:window-width="1920"
     inkscape:window-height="1017"
     id="namedview30"
     showgrid="false"
     fit-margin-top="0"
     fit-margin-left="0"
     fit-margin-right="0"
     fit-margin-bottom="0"
     inkscape:zoom="2.0977778"
     inkscape:cx="-24.071821"
     inkscape:cy="10.041923"
     inkscape:window-x="1912"
     inkscape:window-y="-8"
     inkscape:window-maximized="1"
     inkscape:current-layer="svg2" /><g
     id="g4"
     transform="translate(-9.5,-8.8)"
     style="fill:#ffffff"><rect
       x="40.799999"
       y="41.400002"
       width="29.5"
       height="3.5999999"
       id="rect6"
       style="fill:#ffffff" /><rect
       x="40.799999"
       y="34.900002"
       width="29.5"
       height="3.5999999"
       id="rect8"
       style="fill:#ffffff" /><path
       d="m 66.2,61 c -0.7,-0.3 -1.7,-0.6 -2.8,-0.8 l 0,-5 c 0.8,0.3 1.3,1.1 1.4,2.4 l 4.2,0 c -0.4,-3.3 -2.3,-5.1 -5.6,-5.5 l 0,-1.9 -2.9,0 0,1.9 c -0.9,0.1 -1.7,0.3 -2.4,0.6 -0.7,0.3 -1.3,0.7 -1.8,1.2 -0.5,0.5 -0.9,1 -1.2,1.6 -0.3,0.6 -0.4,1.3 -0.4,2.1 0,2.7 1.9,4.5 5.7,5.3 l 0,5.6 C 59.8,68.3 59.3,67.9 59,67.3 58.6,66.8 58.4,66 58.3,65.1 l -4.1,0 c 0.1,1 0.2,1.8 0.5,2.6 0.3,0.7 0.7,1.4 1.2,1.9 0.5,0.5 1.1,1 1.9,1.3 0.7,0.3 1.6,0.5 2.6,0.7 l 0,1.9 2.9,0 0,-1.9 c 1,-0.1 1.8,-0.3 2.5,-0.7 0.7,-0.4 1.4,-0.8 1.9,-1.3 0.5,-0.5 0.9,-1.1 1.2,-1.8 0.3,-0.7 0.4,-1.4 0.4,-2.1 0,-1.5 -0.5,-2.7 -1.4,-3.6 -0.4,-0.4 -1,-0.8 -1.7,-1.1 z M 60.5,59.6 C 60,59.4 59.6,59.2 59.3,58.8 59,58.5 58.9,58 58.9,57.4 c 0,-1.1 0.5,-1.9 1.6,-2.3 l 0,4.5 z m 2.9,9 0,-5 c 0.4,0.1 0.7,0.2 0.9,0.4 0.2,0.1 0.4,0.3 0.6,0.5 0.1,0.2 0.2,0.4 0.3,0.6 0,0.2 0.1,0.5 0.1,0.8 -0.1,1.4 -0.7,2.4 -1.9,2.7 z"
       id="path10"
       inkscape:connector-curvature="0"
       style="fill:#ffffff" /><path
       d="m 55.3,30.8 c 2.7,0 4.8,-2.2 4.8,-4.8 0,-0.6 -0.1,-1.2 -0.3,-1.7 -0.6,0.6 -1.1,1.1 -1.6,1.6 0,0 0,0.1 0,0.1 0,1.6 -1.3,3 -3,3 -1.6,0 -3,-1.3 -3,-3 0,-1.6 1.2,-2.8 2.7,-2.9 0.5,-0.5 1.1,-1.1 1.7,-1.7 -0.5,-0.1 -0.9,-0.2 -1.4,-0.2 -2.7,0 -4.8,2.2 -4.8,4.8 0,2.6 2.2,4.8 4.9,4.8 z"
       id="path12"
       inkscape:connector-curvature="0"
       style="fill:#ffffff" /><path
       d="m 80.8,9.5 0,-0.4 -1.9,0 0,0.4 c 0,2.5 0,5 -1.8,6.4 -1.5,1.2 -3.3,1.1 -5.8,-0.2 -2.7,-1.4 -5.4,-1.1 -8.1,1 L 55.3,9.9 35,27.2 l 0,53.3 40.4,0 0,-53.3 L 64.7,18 c 1.9,-1.4 3.9,-1.6 5.7,-0.6 3.1,1.7 5.7,1.7 7.9,0 2.5,-2 2.5,-5.1 2.5,-7.9 z m -8.5,67.8 -34.1,0 0,-48.6 17,-14.5 5.6,4.8 c -2.2,2.1 -5,5 -5,5 l 1.4,1.3 c 0,0 2.9,-3 5.1,-5.1 l 10,8.5 0,48.6 z"
       id="path14"
       inkscape:connector-curvature="0"
       style="fill:#ffffff" /><polygon
       points="10.2,57.2 31.4,57.2 31.4,25.5 43.7,14.7 10.2,14.7 "
       id="polygon16"
       style="fill:#ffffff" /><path
       d="m 46.4,50.9 0,1.4 c -0.6,0.1 -1.2,0.2 -1.7,0.4 -0.5,0.2 -0.9,0.5 -1.3,0.8 -0.4,0.3 -0.6,0.7 -0.8,1.2 -0.2,0.4 -0.3,0.9 -0.3,1.5 0,1.7 1.1,2.9 3.2,3.5 l 2.9,-4.2 0,-1.1 c 0.2,0.1 0.4,0.2 0.5,0.3 l 1.4,-2 c -0.5,-0.3 -1.1,-0.5 -1.9,-0.6 l 0,-1.4 -2,0 z m 0,6.7 c -0.4,-0.1 -0.6,-0.3 -0.8,-0.5 -0.2,-0.2 -0.3,-0.5 -0.3,-1 0,-0.8 0.4,-1.3 1.1,-1.6 l 0,3.1 z"
       id="path18"
       inkscape:connector-curvature="0"
       style="fill:#ffffff" /><path
       d="m 42.4,63.4 c 0.1,0.2 0.2,0.4 0.3,0.6 l 1.6,-2.4 -2.3,0 c 0.1,0.7 0.2,1.3 0.4,1.8 z"
       id="path20"
       inkscape:connector-curvature="0"
       style="fill:#ffffff" /><path
       d="m 50.8,58.8 -1.5,2.1 c 0,0 0.1,0.1 0.2,0.1 0.1,0.1 0.2,0.3 0.2,0.4 0,0.2 0.1,0.4 0.1,0.6 0,1 -0.4,1.7 -1.3,1.9 l 0,-1.8 -2.6,3.8 c 0.2,0 0.4,0.1 0.6,0.1 l 0,1.4 2,0 0,-1.4 c 0.7,-0.1 1.3,-0.2 1.8,-0.5 0.5,-0.3 1,-0.6 1.3,-1 0.3,-0.4 0.6,-0.8 0.8,-1.3 0.2,-0.5 0.3,-1 0.3,-1.5 0,-1.1 -0.3,-1.9 -1,-2.6 -0.2,0.1 -0.5,-0.1 -0.9,-0.3 z"
       id="path22"
       inkscape:connector-curvature="0"
       style="fill:#ffffff" /><rect
       x="47.5"
       y="49.799999"
       transform="matrix(-0.823,-0.568,0.568,-0.823,54.3178,135.356)"
       width="1.4"
       height="18.9"
       id="rect24"
       style="fill:#ffffff" /></g></svg>