<?xml version="1.0" encoding="UTF-8" standalone="no"?>
<svg
   xmlns:dc="http://purl.org/dc/elements/1.1/"
   xmlns:cc="http://creativecommons.org/ns#"
   xmlns:rdf="http://www.w3.org/1999/02/22-rdf-syntax-ns#"
   xmlns:svg="http://www.w3.org/2000/svg"
   xmlns="http://www.w3.org/2000/svg"
   xmlns:sodipodi="http://sodipodi.sourceforge.net/DTD/sodipodi-0.dtd"
   xmlns:inkscape="http://www.inkscape.org/namespaces/inkscape"
   version="1.1"
   x="0px"
   y="0px"
   viewBox="0 0 81 81"
   enable-background="new 0 0 100 100"
   xml:space="preserve"
   id="svg2"
   inkscape:version="0.91 r13725"
   sodipodi:docname="subscriptions.svg"
   width="81"
   height="81"><metadata
     id="metadata20"><rdf:RDF><cc:Work
         rdf:about=""><dc:format>image/svg+xml</dc:format><dc:type
           rdf:resource="http://purl.org/dc/dcmitype/StillImage" /><dc:title></dc:title></cc:Work></rdf:RDF></metadata><defs
     id="defs18" /><sodipodi:namedview
     pagecolor="#ffffff"
     bordercolor="#666666"
     borderopacity="1"
     objecttolerance="10"
     gridtolerance="10"
     guidetolerance="10"
     inkscape:pageopacity="0"
     inkscape:pageshadow="2"
     inkscape:window-width="732"
     inkscape:window-height="480"
     id="namedview16"
     showgrid="false"
     fit-margin-top="0"
     fit-margin-left="0"
     fit-margin-right="0"
     fit-margin-bottom="0"
     inkscape:zoom="1.888"
     inkscape:cx="-20.413136"
     inkscape:cy="22.9"
     inkscape:window-x="2612"
     inkscape:window-y="194"
     inkscape:window-maximized="0"
     inkscape:current-layer="svg2" /><path
     d="M 36,0.30000023 C 23.6,0.30000023 13.5,10.4 13.5,22.8 13.5,35.3 23.6,45.3 36,45.3 48.5,45.3 58.5,35.3 58.5,22.8 58.5,10.4 48.5,0.30000023 36,0.30000023 Z"
     id="path4"
     inkscape:connector-curvature="0"
     style="fill:#ffffff" /><g
     id="g6"
     transform="translate(-5,-4.6999997)"
     style="fill:#ffffff"><path
       d="M 68.5,61.3 C 65,58 60.9,55.8 56.2,54.5 c -4.5,2.5 -9.7,4 -15.1,4 -5.5,0 -10.6,-1.4 -15.1,-4 -9.9,2.7 -17.5,9 -21,22.5 l 54,0 c 0,-6.8 3.9,-12.7 9.5,-15.7 z"
       id="path8"
       inkscape:connector-curvature="0"
       style="fill:#ffffff" /></g><path
     d="M 81,70.3 80.8,70 77,69.9 c -1.6,0 -3,-1 -3.5,-2.5 l -1.2,-3.4 -0.5,0 -1.2,3.4 c -0.5,1.5 -1.9,2.5 -3.5,2.5 l -3.9,0 -0.2,0.5 3.1,2.3 c 1.3,1 1.8,2.6 1.3,4.1 l -1.1,3.6 0.4,0.3 3.1,-2.2 c 1.3,-0.9 3,-0.9 4.3,0 l 3,2.1 0.5,-0.3 -1.1,-3.5 C 76,75.3 76.6,73.6 77.8,72.7 L 81,70.3 Z"
     id="path10"
     inkscape:connector-curvature="0"
     style="fill:#ffffff" /></svg>