<?xml version="1.0" encoding="UTF-8" standalone="no"?>
<svg
   xmlns:dc="http://purl.org/dc/elements/1.1/"
   xmlns:cc="http://creativecommons.org/ns#"
   xmlns:rdf="http://www.w3.org/1999/02/22-rdf-syntax-ns#"
   xmlns:svg="http://www.w3.org/2000/svg"
   xmlns="http://www.w3.org/2000/svg"
   xmlns:sodipodi="http://sodipodi.sourceforge.net/DTD/sodipodi-0.dtd"
   xmlns:inkscape="http://www.inkscape.org/namespaces/inkscape"
   version="1.1"
   x="0px"
   y="0px"
   viewBox="0 0 90 90"
   enable-background="new 0 0 100 100"
   xml:space="preserve"
   id="svg2"
   inkscape:version="0.91 r13725"
   sodipodi:docname="vouchers.svg"
   width="90"
   height="90"><metadata
     id="metadata64"><rdf:RDF><cc:Work
         rdf:about=""><dc:format>image/svg+xml</dc:format><dc:type
           rdf:resource="http://purl.org/dc/dcmitype/StillImage" /><dc:title></dc:title></cc:Work></rdf:RDF></metadata><defs
     id="defs62" /><sodipodi:namedview
     pagecolor="#ffffff"
     bordercolor="#666666"
     borderopacity="1"
     objecttolerance="10"
     gridtolerance="10"
     guidetolerance="10"
     inkscape:pageopacity="0"
     inkscape:pageshadow="2"
     inkscape:window-width="732"
     inkscape:window-height="480"
     id="namedview60"
     showgrid="false"
     fit-margin-top="0"
     fit-margin-left="0"
     fit-margin-right="0"
     fit-margin-bottom="0"
     inkscape:zoom="1.888"
     inkscape:cx="-43.250381"
     inkscape:cy="32.5"
     inkscape:window-x="2671"
     inkscape:window-y="220"
     inkscape:window-maximized="0"
     inkscape:current-layer="svg2" /><path
     d="m 32.387,8.7232636 c 1.656,-0.441 2.627,-2.134 2.185,-3.787 -0.442,-1.653 -2.137,-2.629 -3.789,-2.186 -1.652,0.444 -2.628,2.133 -2.186,3.788 0.442,1.656 2.138,2.626 3.79,2.185 l 0,0 z m -2.202,2.5770004 c -2.008,-0.505 -3.597,-2.0330004 -4.142,-4.0780004 -0.819,-3.052 1.006,-6.21 4.057,-7.02799997 3.053,-0.815 6.209,1.00599997 7.026,4.05799997 0.56,2.088 -0.113,4.318 -1.702,5.7500004 l 26.716,15.424 c -1.872,1.184 -3.658,2.148 -5.309,1.465 -4.427,-1.83 -18.194,-12.933 -26.646,-15.591 l 0,0 z"
     id="path4"
     inkscape:connector-curvature="0"
     style="clip-rule:evenodd;fill:#ffffff;fill-rule:evenodd" /><path
     d="m 40.734,11.544264 3.113,1.798 18.252,-10.5400004 c -1.872,-1.184 -3.655,-2.14599997 -5.307,-1.463 -2.82,1.166 -9.431,6.112 -16.058,10.2050004 l 0,0 z"
     id="path6"
     inkscape:connector-curvature="0"
     style="clip-rule:evenodd;fill:#ffffff;fill-rule:evenodd" /><path
     d="m 32.387,19.393264 c -1.653,-0.442 -3.346,0.53 -3.79,2.186 -0.439,1.649 0.536,3.347 2.189,3.788 1.648,0.442 3.344,-0.527 3.787,-2.184 0.441,-1.65 -0.53,-3.348 -2.186,-3.79 l 0,0 z m -2.072,-2.608 c 1.493,-0.468 3.139,-1.188 4.864,-2.069 1.033,0.549 2.096,1.158 3.171,1.796 l -2.867,1.656 c 1.543,1.429 2.197,3.63 1.643,5.695 -0.817,3.055 -3.968,4.877 -7.026,4.06 -3.077,-0.825 -4.878,-3.96 -4.057,-7.028 0.561,-2.093 2.205,-3.638 4.272,-4.11 z"
     id="path8"
     inkscape:connector-curvature="0"
     style="clip-rule:evenodd;fill:#ffffff;fill-rule:evenodd" /><path
     d="m 67.182,15.486264 c -0.84,0 -1.521,-0.682 -1.521,-1.521 0,-0.839 0.682,-1.521 1.521,-1.521 l 3.042,0 c 0.84,0 1.521,0.682 1.521,1.521 0,0.839 -0.682,1.521 -1.521,1.521 l -3.042,0 z"
     id="path10"
     inkscape:connector-curvature="0"
     style="clip-rule:evenodd;fill:#ffffff;fill-rule:evenodd" /><path
     d="m 55.018,15.486264 c -0.84,0 -1.521,-0.682 -1.521,-1.521 0,-0.839 0.682,-1.521 1.521,-1.521 l 3.042,0 c 0.84,0 1.521,0.682 1.521,1.521 0,0.839 -0.682,1.521 -1.521,1.521 l -3.042,0 z"
     id="path12"
     inkscape:connector-curvature="0"
     style="clip-rule:evenodd;fill:#ffffff;fill-rule:evenodd" /><path
     d="m 20.301,15.486264 c -0.84,0 -1.521,-0.682 -1.521,-1.521 0,-0.839 0.681,-1.521 1.521,-1.521 l 3.041,0 c 0.84,0 1.521,0.682 1.521,1.521 0,0.839 -0.682,1.521 -1.521,1.521 l -3.041,0 z"
     id="path14"
     inkscape:connector-curvature="0"
     style="clip-rule:evenodd;fill:#ffffff;fill-rule:evenodd" /><path
     d="m 22.61,86.957264 c 0.84,0 1.521,0.682 1.521,1.521 0,0.839 -0.682,1.521 -1.521,1.521 l -3.042,0 c -0.84,0 -1.521,-0.683 -1.521,-1.521 0,-0.84 0.682,-1.521 1.521,-1.521 l 3.042,0 z"
     id="path16"
     inkscape:connector-curvature="0"
     style="clip-rule:evenodd;fill:#ffffff;fill-rule:evenodd" /><path
     d="m 46.521,86.957264 c 0.84,0 1.521,0.682 1.521,1.521 0,0.839 -0.682,1.521 -1.521,1.521 l -3.041,0 c -0.84,0 -1.521,-0.683 -1.521,-1.521 0,-0.84 0.681,-1.521 1.521,-1.521 l 3.041,0 z"
     id="path18"
     inkscape:connector-curvature="0"
     style="clip-rule:evenodd;fill:#ffffff;fill-rule:evenodd" /><path
     d="m 58.476,86.957264 c 0.84,0 1.521,0.682 1.521,1.521 0,0.839 -0.681,1.521 -1.521,1.521 l -3.041,0 c -0.84,0 -1.521,-0.683 -1.521,-1.521 0,-0.84 0.682,-1.521 1.521,-1.521 l 3.041,0 z"
     id="path20"
     inkscape:connector-curvature="0"
     style="clip-rule:evenodd;fill:#ffffff;fill-rule:evenodd" /><path
     d="m 70.433,86.957264 c 0.84,0 1.521,0.682 1.521,1.521 0,0.839 -0.681,1.521 -1.521,1.521 l -3.041,0 c -0.84,0 -1.521,-0.683 -1.521,-1.521 0,-0.84 0.682,-1.521 1.521,-1.521 l 3.041,0 z"
     id="path22"
     inkscape:connector-curvature="0"
     style="clip-rule:evenodd;fill:#ffffff;fill-rule:evenodd" /><path
     d="m 83.908,88.439264 0,0.04 c 0,0.839 -0.682,1.521 -1.52,1.521 l -0.04,0 -3.001,0 c -0.84,0 -1.521,-0.683 -1.521,-1.521 0,-0.84 0.682,-1.521 1.521,-1.521 l 1.52,0 0,-1.52 c 0,-0.84 0.681,-1.521 1.521,-1.521 0.838,0 1.52,0.681 1.52,1.521 l 0,3.001 z"
     id="path24"
     inkscape:connector-curvature="0"
     style="clip-rule:evenodd;fill:#ffffff;fill-rule:evenodd" /><path
     d="m 82.388,12.444264 c 0.838,0 1.52,0.682 1.52,1.521 l 0,0.04 0,3.001 c 0,0.84 -0.682,1.521 -1.52,1.521 -0.84,0 -1.521,-0.681 -1.521,-1.521 l 0,-1.52 -1.52,0 c -0.84,0 -1.521,-0.682 -1.521,-1.521 0,-0.839 0.682,-1.521 1.521,-1.521 l 3.001,0 0.04,0 z"
     id="path26"
     inkscape:connector-curvature="0"
     style="clip-rule:evenodd;fill:#ffffff;fill-rule:evenodd" /><path
     d="m 34.566,86.957264 c 0.84,0 1.521,0.682 1.521,1.521 0,0.839 -0.682,1.521 -1.521,1.521 l -3.042,0 c -0.84,0 -1.521,-0.683 -1.521,-1.521 0,-0.84 0.682,-1.521 1.521,-1.521 l 3.042,0 z"
     id="path28"
     inkscape:connector-curvature="0"
     style="clip-rule:evenodd;fill:#ffffff;fill-rule:evenodd" /><path
     d="m 80.867,73.525264 c 0,-0.84 0.681,-1.521 1.521,-1.521 0.838,0 1.52,0.681 1.52,1.521 l 0,3.041 c 0,0.84 -0.682,1.521 -1.52,1.521 -0.84,0 -1.521,-0.682 -1.521,-1.521 l 0,-3.041 z"
     id="path30"
     inkscape:connector-curvature="0"
     style="clip-rule:evenodd;fill:#ffffff;fill-rule:evenodd" /><path
     d="m 80.867,61.613264 c 0,-0.84 0.681,-1.521 1.521,-1.521 0.838,0 1.52,0.682 1.52,1.521 l 0,3.041 c 0,0.84 -0.682,1.521 -1.52,1.521 -0.84,0 -1.521,-0.681 -1.521,-1.521 l 0,-3.041 z"
     id="path32"
     inkscape:connector-curvature="0"
     style="clip-rule:evenodd;fill:#ffffff;fill-rule:evenodd" /><path
     d="m 80.867,49.702264 c 0,-0.839 0.681,-1.52 1.521,-1.52 0.838,0 1.52,0.681 1.52,1.52 l 0,3.041 c 0,0.84 -0.682,1.521 -1.52,1.521 -0.84,0 -1.521,-0.682 -1.521,-1.521 l 0,-3.041 z"
     id="path34"
     inkscape:connector-curvature="0"
     style="clip-rule:evenodd;fill:#ffffff;fill-rule:evenodd" /><path
     d="m 80.867,37.789264 c 0,-0.84 0.681,-1.521 1.521,-1.521 0.838,0 1.52,0.681 1.52,1.521 l 0,3.041 c 0,0.84 -0.682,1.521 -1.52,1.521 -0.84,0 -1.521,-0.682 -1.521,-1.521 l 0,-3.041 z"
     id="path36"
     inkscape:connector-curvature="0"
     style="clip-rule:evenodd;fill:#ffffff;fill-rule:evenodd" /><path
     d="m 80.867,25.878264 c 0,-0.84 0.681,-1.521 1.521,-1.521 0.838,0 1.52,0.682 1.52,1.521 l 0,3.04 c 0,0.84 -0.682,1.521 -1.52,1.521 -0.84,0 -1.521,-0.682 -1.521,-1.521 l 0,-3.04 z"
     id="path38"
     inkscape:connector-curvature="0"
     style="clip-rule:evenodd;fill:#ffffff;fill-rule:evenodd" /><path
     d="m 6.092,88.439264 0,0.04 c 0,0.839 0.683,1.521 1.521,1.521 l 0.04,0 3.001,0 c 0.84,0 1.521,-0.683 1.521,-1.521 0,-0.84 -0.681,-1.521 -1.521,-1.521 l -1.52,0 0,-1.52 c 0,-0.84 -0.682,-1.521 -1.521,-1.521 -0.839,0 -1.521,0.681 -1.521,1.521 l 0,3.001 z"
     id="path40"
     inkscape:connector-curvature="0"
     style="clip-rule:evenodd;fill:#ffffff;fill-rule:evenodd" /><path
     d="m 7.613,12.444264 c -0.839,0 -1.521,0.682 -1.521,1.521 l 0,0.04 0,3.001 c 0,0.84 0.683,1.521 1.521,1.521 0.84,0 1.521,-0.681 1.521,-1.521 l 0,-1.52 1.52,0 c 0.84,0 1.521,-0.682 1.521,-1.521 0,-0.839 -0.681,-1.521 -1.521,-1.521 l -3.001,0 -0.04,0 z"
     id="path42"
     inkscape:connector-curvature="0"
     style="clip-rule:evenodd;fill:#ffffff;fill-rule:evenodd" /><path
     d="m 9.134,73.525264 c 0,-0.84 -0.682,-1.521 -1.521,-1.521 -0.839,0 -1.521,0.681 -1.521,1.521 l 0,3.041 c 0,0.84 0.683,1.521 1.521,1.521 0.84,0 1.521,-0.682 1.521,-1.521 l 0,-3.041 z"
     id="path44"
     inkscape:connector-curvature="0"
     style="clip-rule:evenodd;fill:#ffffff;fill-rule:evenodd" /><path
     d="m 9.134,61.613264 c 0,-0.84 -0.682,-1.521 -1.521,-1.521 -0.839,0 -1.521,0.682 -1.521,1.521 l 0,3.041 c 0,0.84 0.683,1.521 1.521,1.521 0.84,0 1.521,-0.681 1.521,-1.521 l 0,-3.041 z"
     id="path46"
     inkscape:connector-curvature="0"
     style="clip-rule:evenodd;fill:#ffffff;fill-rule:evenodd" /><path
     d="m 9.134,49.702264 c 0,-0.839 -0.682,-1.52 -1.521,-1.52 -0.839,0 -1.521,0.681 -1.521,1.52 l 0,3.041 c 0,0.84 0.683,1.521 1.521,1.521 0.84,0 1.521,-0.682 1.521,-1.521 l 0,-3.041 z"
     id="path48"
     inkscape:connector-curvature="0"
     style="clip-rule:evenodd;fill:#ffffff;fill-rule:evenodd" /><path
     d="m 9.134,37.789264 c 0,-0.84 -0.682,-1.521 -1.521,-1.521 -0.839,0 -1.521,0.681 -1.521,1.521 l 0,3.041 c 0,0.84 0.683,1.521 1.521,1.521 0.84,0 1.521,-0.682 1.521,-1.521 l 0,-3.041 z"
     id="path50"
     inkscape:connector-curvature="0"
     style="clip-rule:evenodd;fill:#ffffff;fill-rule:evenodd" /><path
     d="m 9.134,25.878264 c 0,-0.84 -0.682,-1.521 -1.521,-1.521 -0.839,0 -1.521,0.682 -1.521,1.521 l 0,3.04 c 0,0.84 0.683,1.521 1.521,1.521 0.84,0 1.521,-0.682 1.521,-1.521 l 0,-3.04 z"
     id="path52"
     inkscape:connector-curvature="0"
     style="clip-rule:evenodd;fill:#ffffff;fill-rule:evenodd" /><path
     d="m 47.528,32.091264 -4.906,0 c -1.368,0 -1.793,0.425 -1.793,1.793 l 0,1.604 c -5.897,1.038 -8.965,4.293 -8.965,9.295 0,8.681 7.644,9.53 12.787,10.285 2.595,0.33 4.575,0.755 4.575,2.359 0,1.698 -1.557,2.265 -4.481,2.265 -2.596,0 -3.964,-0.803 -4.671,-2.313 -0.66,-1.368 -1.322,-1.51 -2.69,-0.991 l -4.388,1.558 c -1.322,0.472 -1.698,1.179 -1.227,2.5 1.322,3.632 4.293,5.803 9.059,6.51 l 0,1.557 c 0,1.369 0.425,1.84 1.793,1.84 l 4.906,0 c 1.322,0 1.793,-0.471 1.793,-1.84 l 0,-1.651 c 5.851,-1.084 9.106,-4.34 9.106,-9.53 0,-8.775 -7.313,-9.578 -12.456,-10.238 -2.737,-0.378 -4.859,-0.802 -4.859,-2.406 0,-1.464 1.084,-2.124 3.915,-2.124 2.406,0 3.397,0.755 4.246,2.311 0.708,1.369 1.227,1.558 2.5,0.991 l 4.577,-2.028 c 1.416,-0.614 1.745,-1.274 1.085,-2.595 -1.557,-3.162 -4.057,-5.049 -8.115,-5.757 l 0,-1.604 c 10e-4,-1.365 -0.47,-1.791 -1.791,-1.791 z"
     id="path54"
     inkscape:connector-curvature="0"
     style="clip-rule:evenodd;fill:#ffffff;fill-rule:evenodd" /></svg>